<svg data-v-0dd9719b="" version="1.0" xmlns="http://www.w3.org/2000/svg" xmlns:xlink="http://www.w3.org/1999/xlink" width="100%" height="100%" viewBox="0 0 340.000000 250.000000" preserveAspectRatio="xMidYMid meet" color-interpolation-filters="sRGB" style="margin: auto;"> <rect data-v-0dd9719b="" x="0" y="0" width="100%" height="100%" fill="#fff" fill-opacity="1" class="background"></rect> <rect data-v-0dd9719b="" x="0" y="0" width="100%" height="100%" fill="url(#watermark)" fill-opacity="1" class="watermarklayer"></rect> <g data-v-0dd9719b="" fill="#333" class="icon-text-wrapper icon-svg-group iconsvg" transform="translate(47.865005493790825,95.25874900817871)"><g class="iconsvg-imagesvg" transform="translate(0,0)"><g><rect fill="#333" fill-opacity="0" stroke-width="2" x="0" y="0" width="60" height="59.48250223059384" class="image-rect"></rect> <svg x="0" y="0" width="60" height="59.48250223059384" filtersec="colorsb7529270270" class="image-svg-svg primary" style="overflow: visible;"><svg xmlns="http://www.w3.org/2000/svg" viewBox="0.01967410370707512 -0.0011735891457647085 178.31040954589844 176.77220153808594"><path d="M40.27 148.55c-2.93-1.1-5.45-3-8.14-4.49-6.08-3.43-12.09-7-18.16-10.42a2.76 2.76 0 0 1-1.57-2.83c.07-3.92 0-7.85 0-11.77 0-.72.37-1.68-.41-2.08s-1.26.38-1.86.72c-2.84 1.64-5.67 3.28-8.52 4.9-1.33.76-1.59.63-1.59-.87V100.1A2.23 2.23 0 0 1 1.4 98l23.31-13.43q19.11-11 38.22-22.06a2.39 2.39 0 0 1 2.77 0q23.21 13.55 46.46 27a2.9 2.9 0 0 0 3.36 0c9.26-5.44 18.58-10.77 27.87-16.14.55-.32 1.19-.59 1.18-1.39-.07-5.21.22-10.42-.15-15.62.1-.12.3-.25.29-.36-.37-4.11 0-8.23-.19-12.34a21.24 21.24 0 0 0-4.14-11.73c-1-1.32-2-2.63-3-3.94 3.19 1.3 6 3.28 9 5 6.09 3.41 12.1 7 18.18 10.4a2.27 2.27 0 0 1 1.31 2.3c-.05 4.25 0 8.5 0 12.74 0 1.64.36 1.84 1.77 1q4.4-2.52 8.78-5.09c1.54-.9 1.91-.74 1.91 1v21.29a2.38 2.38 0 0 1-1.5 2.23q-16.56 9.51-33.1 19c-9.44 5.44-18.89 10.86-28.32 16.35a2.6 2.6 0 0 1-3 0Q91.37 102 70.29 89.9c-1.62-.9-3.29-1.83-4.89-2.78a2.39 2.39 0 0 0-2.58.07c-8.73 5.07-17.42 10.2-26.22 15.14-2.13 1.19-3.1 2.44-2.93 5 .26 3.8.08 7.63.06 11.44a2.88 2.88 0 0 0 .48 2 .71.71 0 0 0-.68.89c.59 3.69.15 7.4.26 11.1a21.36 21.36 0 0 0 4 12c.87 1.17 2.21 2.16 2.48 3.79z" fill="#22b1da"></path><path d="M137.4 28c1 1.31 2 2.62 3 3.94a21.24 21.24 0 0 1 4.14 11.73c.24 4.11-.18 8.23.19 12.34 0 .11-.19.24-.29.36-4.15-2.36-8.33-4.66-12.41-7.12a2.7 2.7 0 0 0-3.19 0C119.56 54.63 110.25 60 101 65.35a2.16 2.16 0 0 1-2.5 0c-6.12-3.55-12.27-7.06-18.4-10.59-1.8-1-1.8-1.14 0-2.16q13.4-7.78 26.9-15.51c1.88-1.08 1.89-1.12 0-2.22-5.47-3.17-11-6.31-16.42-9.51a2.48 2.48 0 0 0-2.83 0q-14.53 8.45-29.13 16.8Q47 48.84 35.41 55.47a2.83 2.83 0 0 0-1.69 2.91c.13 3.33 0 6.66.05 10a1.81 1.81 0 0 1-.87 1.89q-10 5.7-20 11.45a1.27 1.27 0 0 1-.31.08c-.43-.51-.29-1.12-.29-1.7V45.75a2.58 2.58 0 0 1 1.44-2.58Q44.08 25.73 74.39 8.24q6.75-3.88 13.5-7.82a2 2 0 0 1 2.33-.09q21.63 12.59 43.29 25.09c1.34.77 2.6 1.7 3.89 2.58zM40.27 148.55c-.3-1.63-1.61-2.62-2.5-3.87a21.36 21.36 0 0 1-4-12c-.11-3.7.33-7.41-.26-11.1a.71.71 0 0 1 .68-.89c4 2.27 8.06 4.5 12 6.85a2.63 2.63 0 0 0 3.06 0c9.36-5.45 18.76-10.83 28.15-16.24a1.8 1.8 0 0 1 2.06-.07c6.25 3.66 12.53 7.26 18.79 10.89 1.52.88 1.51 1 0 1.93l-26.88 15.54c-.37.22-.76.41-1.11.66-.53.36-.76.66 0 1.11 6 3.46 12.08 7 18.1 10.47.81.46 1.42.06 2.08-.33l24.09-13.94q14.13-8.17 28.28-16.32a2.83 2.83 0 0 0 1.73-2.9c-.11-3.22 0-6.45-.05-9.67a2.33 2.33 0 0 1 1.28-2.35c6.22-3.59 12.42-7.23 18.63-10.85 1.39-.8 1.62-.66 1.62 1v34.67a2.35 2.35 0 0 1-1.37 2.29q-21.13 12.15-42.23 24.35l-32.18 18.6a1.81 1.81 0 0 1-2.06.13q-22.76-13.2-45.53-26.36c-.51-.29-1-.67-1.45-1-.06-.51-.36-.65-.81-.55h-.1z" fill="#1684ad"></path><path d="M40.44 148.6c.45-.1.75 0 .81.55-.44.06-.66-.15-.81-.55z" fill="#22b1da"></path></svg></svg> <!----></g></g> <g transform="translate(67,11.806251525878906)"><g data-gra="path-name" fill-rule="" class="tp-name iconsvg-namesvg"><g transform="scale(1)"><g><path d="M16.72-34.51L16.72-34.51 16.72-33.53Q15.16-33.48 14.35-33.17 13.55-32.85 13.31-32 13.06-31.15 13.06-29.34L13.06-29.34 13.06-5.17Q13.06-3.41 13.33-2.53 13.6-1.66 14.38-1.36 15.16-1.07 16.72-0.97L16.72-0.97 16.72 0Q15.4-0.1 13.4-0.12 11.41-0.15 9.36-0.15L9.36-0.15Q6.97-0.15 4.95-0.12 2.92-0.1 1.66 0L1.66 0 1.66-0.97Q3.22-1.07 4-1.36 4.78-1.66 5.04-2.53 5.31-3.41 5.31-5.17L5.31-5.17 5.31-29.34Q5.31-31.15 5.04-32 4.78-32.85 3.97-33.17 3.17-33.48 1.66-33.53L1.66-33.53 1.66-34.51Q2.92-34.46 4.95-34.41 6.97-34.36 9.36-34.36L9.36-34.36Q11.41-34.36 13.4-34.41 15.4-34.46 16.72-34.51ZM35.04-34.51L35.04-34.51 35.04-33.53Q33.48-33.48 32.68-33.17 31.88-32.85 31.63-32 31.39-31.15 31.39-29.34L31.39-29.34 31.39-5.17Q31.39-3.41 31.66-2.53 31.93-1.66 32.71-1.36 33.48-1.07 35.04-0.97L35.04-0.97 35.04 0Q33.73-0.1 31.73-0.12 29.73-0.15 27.68-0.15L27.68-0.15Q25.3-0.15 23.27-0.12 21.25-0.1 19.98 0L19.98 0 19.98-0.97Q21.54-1.07 22.32-1.36 23.1-1.66 23.37-2.53 23.64-3.41 23.64-5.17L23.64-5.17 23.64-29.34Q23.64-31.15 23.37-32 23.1-32.85 22.3-33.17 21.49-33.48 19.98-33.53L19.98-33.53 19.98-34.51Q21.25-34.46 23.27-34.41 25.3-34.36 27.68-34.36L27.68-34.36Q29.73-34.36 31.73-34.41 33.73-34.46 35.04-34.51ZM50.5-35.14L50.5-35.14Q53.37-35.14 54.93-34.53 56.49-33.92 57.61-33.24L57.61-33.24Q58.2-32.9 58.56-32.73 58.93-32.56 59.27-32.56L59.27-32.56Q60.05-32.56 60.34-34.7L60.34-34.7 61.46-34.7Q61.41-33.78 61.34-32.49 61.27-31.19 61.24-29.1 61.22-27 61.22-23.59L61.22-23.59 60.1-23.59Q59.9-26.13 58.93-28.51 57.95-30.9 56.17-32.44 54.39-33.97 51.81-33.97L51.81-33.97Q49.47-33.97 47.96-32.66 46.45-31.34 46.45-29L46.45-29Q46.45-27.05 47.42-25.66 48.4-24.27 50.28-22.96 52.15-21.64 54.83-19.79L54.83-19.79Q57.17-18.28 59.03-16.77 60.88-15.26 62-13.35 63.12-11.45 63.12-8.82L63.12-8.82Q63.12-5.61 61.44-3.51 59.76-1.41 57.03-0.37 54.3 0.68 51.03 0.68L51.03 0.68Q48.01 0.68 46.21 0.1 44.4-0.49 43.18-1.12L43.18-1.12Q42.11-1.8 41.53-1.8L41.53-1.8Q40.75-1.8 40.45 0.34L40.45 0.34 39.33 0.34Q39.43-0.83 39.46-2.39 39.48-3.95 39.5-6.46 39.53-8.97 39.53-12.82L39.53-12.82 40.65-12.82Q40.84-9.6 41.75-6.8 42.65-4 44.52-2.29 46.4-0.58 49.52-0.58L49.52-0.58Q52.06-0.58 53.81-1.95 55.56-3.31 55.56-6.04L55.56-6.04Q55.56-9.07 53.52-11.04 51.47-13.01 48.25-15.11L48.25-15.11Q45.96-16.62 43.96-18.13 41.97-19.64 40.77-21.59 39.58-23.54 39.58-26.22L39.58-26.22Q39.58-29.29 41.11-31.27 42.65-33.24 45.16-34.19 47.67-35.14 50.5-35.14ZM81.84-34.51L81.84-34.51 81.84-33.53Q80.28-33.48 79.47-33.17 78.67-32.85 78.42-32 78.18-31.15 78.18-29.34L78.18-29.34 78.18-5.17Q78.18-3.41 78.45-2.53 78.72-1.66 79.5-1.36 80.28-1.07 81.84-0.97L81.84-0.97 81.84 0Q80.52-0.1 78.52-0.12 76.52-0.15 74.48-0.15L74.48-0.15Q72.09-0.15 70.06-0.12 68.04-0.1 66.77 0L66.77 0 66.77-0.97Q68.33-1.07 69.11-1.36 69.89-1.66 70.16-2.53 70.43-3.41 70.43-5.17L70.43-5.17 70.43-29.34Q70.43-31.15 70.16-32 69.89-32.85 69.09-33.17 68.29-33.48 66.77-33.53L66.77-33.53 66.77-34.51Q68.04-34.46 70.06-34.41 72.09-34.36 74.48-34.36L74.48-34.36Q76.52-34.36 78.52-34.41 80.52-34.46 81.84-34.51ZM111.18-34.51L111.18-34.51Q110.98-32.32 110.91-30.27 110.84-28.22 110.84-27.1L110.84-27.1Q110.84-26.03 110.89-25.05 110.93-24.08 110.98-23.4L110.98-23.4 109.86-23.4Q109.23-27.2 108.11-29.37 106.99-31.54 105.35-32.46 103.72-33.39 101.48-33.39L101.48-33.39 99.87-33.39Q98.46-33.39 97.73-33.14 96.99-32.9 96.75-32.17 96.51-31.44 96.51-29.93L96.51-29.93 96.51-5.46Q96.51-3.56 96.9-2.63 97.29-1.71 98.41-1.41 99.53-1.12 101.72-1.07L101.72-1.07 101.72 0Q100.21-0.05 97.82-0.1 95.43-0.15 92.8-0.15L92.8-0.15Q90.71-0.15 88.71-0.1 86.71-0.05 85.1 0L85.1 0 85.1-0.97Q86.66-1.07 87.44-1.36 88.22-1.66 88.49-2.53 88.76-3.41 88.76-5.17L88.76-5.17 88.76-29.34Q88.76-31.15 88.49-32 88.22-32.85 87.42-33.17 86.61-33.48 85.1-33.53L85.1-33.53 85.1-34.51Q87.73-34.46 90.8-34.41 93.87-34.36 96.6-34.36 99.33-34.36 100.99-34.36L100.99-34.36Q103.23-34.36 106.08-34.39 108.94-34.41 111.18-34.51ZM95.04-17.64L103.92-17.64Q103.92-17.64 103.92-17.16 103.92-16.67 103.92-16.67L103.92-16.67 95.04-16.67Q95.04-16.67 95.04-17.16 95.04-17.64 95.04-17.64L95.04-17.64ZM104.01-24.08L105.13-24.08Q104.94-21.3 104.96-19.84 104.99-18.38 104.99-17.16L104.99-17.16Q104.99-15.94 105.04-14.48 105.09-13.01 105.28-10.24L105.28-10.24 104.16-10.24Q103.87-11.94 103.23-13.4 102.6-14.87 101.38-15.77 100.16-16.67 98.21-16.67L98.21-16.67 98.21-17.64Q100.16-17.64 101.33-18.72 102.5-19.79 103.11-21.28 103.72-22.76 104.01-24.08L104.01-24.08ZM131.31-35.19L131.31-35.19Q136.47-35.19 140.35-33.1 144.22-31 146.37-27.08 148.51-23.15 148.51-17.55L148.51-17.55Q148.51-12.09 146.32-7.99 144.13-3.9 140.2-1.61 136.28 0.68 131.26 0.68L131.26 0.68Q126.09 0.68 122.22-1.41 118.34-3.51 116.2-7.46 114.05-11.41 114.05-16.96L114.05-16.96Q114.05-22.42 116.27-26.52 118.49-30.61 122.36-32.9 126.24-35.19 131.31-35.19ZM131.11-34.31L131.11-34.31Q128.38-34.31 126.36-32.12 124.34-29.93 123.24-26.08 122.14-22.23 122.14-17.16L122.14-17.16Q122.14-11.99 123.39-8.16 124.63-4.34 126.75-2.27 128.87-0.19 131.45-0.19L131.45-0.19Q134.18-0.19 136.21-2.39 138.23-4.58 139.33-8.46 140.42-12.33 140.42-17.35L140.42-17.35Q140.42-22.57 139.18-26.37 137.94-30.17 135.82-32.24 133.7-34.31 131.11-34.31ZM167.23-34.51L167.23-34.51 167.23-33.53Q165.57-33.48 164.72-33.17 163.87-32.85 163.57-32 163.28-31.15 163.28-29.34L163.28-29.34 163.28-4.58Q163.28-3.07 163.5-2.34 163.72-1.61 164.38-1.36 165.04-1.12 166.35-1.12L166.35-1.12 168.74-1.12Q170.98-1.12 172.81-2.49 174.64-3.85 175.88-6.31 177.12-8.77 177.61-11.99L177.61-11.99 178.73-11.99Q178.59-10.33 178.59-7.7L178.59-7.7Q178.59-6.58 178.64-4.44 178.68-2.29 178.93 0L178.93 0Q176.44-0.1 173.32-0.12 170.2-0.15 167.77-0.15L167.77-0.15Q166.11-0.15 163.38-0.15 160.65-0.15 157.58-0.12 154.51-0.1 151.88 0L151.88 0 151.88-0.97Q153.44-1.07 154.22-1.36 155-1.66 155.26-2.53 155.53-3.41 155.53-5.17L155.53-5.17 155.53-29.34Q155.53-31.15 155.26-32 155-32.85 154.19-33.17 153.39-33.48 151.88-33.53L151.88-33.53 151.88-34.51Q153.1-34.46 155.17-34.41 157.24-34.36 159.58-34.36L159.58-34.36Q161.72-34.36 163.79-34.41 165.87-34.46 167.23-34.51Z" transform="translate(-1.6600000858306885, 35.189998626708984)"></path></g> <!----> <!----> <!----> <!----> <!----> <!----> <!----></g></g> <!----></g></g><defs v-gra="od"></defs></svg>